<?xml version="1.0" encoding="UTF-8" standalone="no"?>
<!-- Created with Inkscape (http://www.inkscape.org/) -->

<svg
   width="299.99976mm"
   height="398.08624mm"
   viewBox="0 0 299.99976 398.08624"
   version="1.1"
   id="svg1"
   xml:space="preserve"
   sodipodi:docname="marker.svg"
   xmlns:inkscape="http://www.inkscape.org/namespaces/inkscape"
   xmlns:sodipodi="http://sodipodi.sourceforge.net/DTD/sodipodi-0.dtd"
   xmlns="http://www.w3.org/2000/svg"
   xmlns:svg="http://www.w3.org/2000/svg"><sodipodi:namedview
     id="namedview1"
     pagecolor="#ffffff"
     bordercolor="#000000"
     borderopacity="0.25"
     inkscape:showpageshadow="2"
     inkscape:pageopacity="0.0"
     inkscape:pagecheckerboard="0"
     inkscape:deskcolor="#d1d1d1"
     inkscape:document-units="mm" /><defs
     id="defs1" /><g
     inkscape:label="Layer 1"
     inkscape:groupmode="layer"
     id="layer1"
     transform="translate(-106.00025,-65.480242)"><path
       id="path3"
       style="opacity:1;fill:#383f51;stroke:#870700;stroke-width:0;stroke-opacity:0"
       d="m 255.99988,65.480241 c -39.78236,9.8e-5 -77.93556,15.803847 -106.06588,43.934269 -28.13032,28.13042 -43.93379,66.28352 -43.93375,106.06588 0.1073,34.12698 11.84873,67.1974 33.28582,93.75138 l 95.53009,141.31437 c 11.73584,17.36048 30.63213,17.36047 42.36795,0 l 95.52492,-141.30765 c 21.44039,-26.55509 33.18376,-59.62819 33.29099,-93.7581 4e-5,-39.78245 -15.80331,-77.93595 -43.93375,-106.0664 C 333.93584,81.28356 295.78232,65.480202 255.99988,65.480241 Z m 0,75.000069 c 41.42133,-4e-5 75.00011,33.57875 75.00007,75.00008 -2.4e-4,41.42113 -33.57894,74.99959 -75.00007,74.99955 -41.42113,4e-5 -74.99983,-33.57842 -75.00008,-74.99955 -4e-5,-41.42133 33.57875,-75.00012 75.00008,-75.00008 z m -0.5364,11.54865 -18.00769,37.2923 -40.92928,6.30763 29.90256,28.64993 -6.6492,40.87554 36.48821,-19.58589 36.82049,18.95492 -7.35201,-40.75462 29.40544,-29.16049 -41.03212,-5.60225 z" /></g></svg>
