<?xml version="1.0" encoding="UTF-8" standalone="no"?>
<!-- Created with Inkscape (http://www.inkscape.org/) -->

<svg
   width="512mm"
   height="512mm"
   viewBox="0 0 512 512"
   version="1.1"
   id="svg1"
   xml:space="preserve"
   xmlns:inkscape="http://www.inkscape.org/namespaces/inkscape"
   xmlns:sodipodi="http://sodipodi.sourceforge.net/DTD/sodipodi-0.dtd"
   xmlns="http://www.w3.org/2000/svg"
   xmlns:svg="http://www.w3.org/2000/svg"><sodipodi:namedview
     id="namedview1"
     pagecolor="#ffffff"
     bordercolor="#000000"
     borderopacity="0.25"
     inkscape:showpageshadow="2"
     inkscape:pageopacity="0.0"
     inkscape:pagecheckerboard="0"
     inkscape:deskcolor="#d1d1d1"
     inkscape:document-units="mm" /><defs
     id="defs1" /><g
     inkscape:label="Layer 1"
     inkscape:groupmode="layer"
     id="layer1"><g
       id="g2"><path
         id="rect2"
         style="opacity:1;fill:#383f51;fill-opacity:1;stroke:#870700;stroke-width:0;stroke-dasharray:none;stroke-dashoffset:0;stroke-opacity:0"
         d="m 255.99988,65.480241 a 150,150 0 0 0 -149.99963,150.000149 150,150 0 0 0 33.28582,93.75138 l 95.53009,141.31437 c 11.73588,17.36052 30.63208,17.36051 42.36795,0 L 372.70903,309.23849 A 150,150 0 0 0 406.00002,215.48039 150,150 0 0 0 255.99988,65.480241 Z m 0,75.000069 a 75,75 0 0 1 75.00007,75.00008 75,75 0 0 1 -75.00007,74.99955 75,75 0 0 1 -75.00008,-74.99955 75,75 0 0 1 75.00008,-75.00008 z" /></g></g></svg>
