<?xml version="1.0" encoding="UTF-8" standalone="no"?>
<!-- Created with Inkscape (http://www.inkscape.org/) -->

<svg
   width="299.99976mm"
   height="398.08627mm"
   viewBox="0 0 299.99976 398.08627"
   version="1.1"
   id="svg1"
   xml:space="preserve"
   sodipodi:docname="favmarker.svg"
   xmlns:inkscape="http://www.inkscape.org/namespaces/inkscape"
   xmlns:sodipodi="http://sodipodi.sourceforge.net/DTD/sodipodi-0.dtd"
   xmlns="http://www.w3.org/2000/svg"
   xmlns:svg="http://www.w3.org/2000/svg"><sodipodi:namedview
     id="namedview1"
     pagecolor="#ffffff"
     bordercolor="#000000"
     borderopacity="0.25"
     inkscape:showpageshadow="2"
     inkscape:pageopacity="0.0"
     inkscape:pagecheckerboard="0"
     inkscape:deskcolor="#d1d1d1"
     inkscape:document-units="mm" /><defs
     id="defs1" /><g
     inkscape:label="Layer 1"
     inkscape:groupmode="layer"
     id="layer1"
     transform="translate(-106.00025,-65.480241)"><path
       id="path3"
       style="opacity:1;fill:#383f51;stroke:#870700;stroke-width:0;stroke-opacity:0"
       d="m 255.99988,65.480242 c -39.78232,9.8e-5 -77.93559,15.803875 -106.06588,43.934268 -28.13029,28.13039 -43.93379,66.28356 -43.93375,106.06588 0.1073,34.12694 11.84876,67.19743 33.28582,93.75138 l 95.53009,141.31437 c 11.73583,17.36047 30.63215,17.36046 42.36796,0 l 95.52491,-141.30765 c 21.44037,-26.55506 33.18377,-59.62823 33.291,-93.7581 4e-5,-39.78241 -15.80334,-77.93597 -43.93376,-106.0664 C 333.93587,81.283593 295.78228,65.480203 255.99988,65.480242 Z m 0,75.000078 c 41.42129,-4e-5 75.00011,33.57878 75.00007,75.00007 -2.4e-4,41.42109 -33.57898,74.99959 -75.00007,74.99955 -41.42109,4e-5 -74.99982,-33.57846 -75.00007,-74.99955 -4e-5,-41.42129 33.57878,-75.00011 75.00007,-75.00007 z m 0,11.0727 a 62.5,62.5 0 0 0 -62.49954,62.50007 62.5,62.5 0 0 0 26.32914,50.79638 l -0.0496,0.30489 0.26613,-0.14314 a 62.5,62.5 0 0 0 35.95388,11.54193 62.5,62.5 0 0 0 36.80292,-12.17704 l 0.28577,0.14728 -0.0574,-0.31833 a 62.5,62.5 0 0 0 25.46873,-50.15197 62.5,62.5 0 0 0 -62.50006,-62.50007 z" /></g></svg>
